<?xml version="1.0" encoding="UTF-8" standalone="no"?>
<!-- Created with Keyshape -->
<svg xmlns="http://www.w3.org/2000/svg" xmlns:xlink="http://www.w3.org/1999/xlink" viewBox="0 0 1936 513" text-rendering="geometricPrecision" shape-rendering="geometricPrecision" style="white-space: pre;">
    
    <g id="v1" transform="translate(48,40)">
        <path id="box-2" fill="#b2e4c7" fill-opacity="1" fill-rule="nonzero" stroke="none" stroke-linecap="square" stroke-opacity="0" d="M0,0L1949.53,0L1949.53,506.848L0,373.122Z" transform="translate(921.825,49.5846) translate(-973.688,-93.3818)"/>
        <rect id="box" width="1920" height="327" stroke-opacity="0" fill="#129a4e" stroke-linecap="square" stroke="none" fill-rule="nonzero" fill-opacity="1" transform="translate(921.825,49.5846) translate(-960,-77)"/>
        <rect id="left" width="37" height="116.5" fill="#ffffff" stroke-linecap="square" stroke="none" transform=" translate(-18.5,-58.25)" style="animation: left_mo 7.3s linear infinite both; offset-path: path('M73.5,147.5L73.5,192.833C7.10582,186.589,40.1727,168.757,73.5,229.583C73.5,171.264,73.5,126.279,73.5,67.9601C74.9634,133.589,79.9519,231.179,73.5,225.042C73.5,189.417,73.5,183.125,73.5,147.5'); offset-rotate: 0deg;"/>
        <rect id="ball" width="29" height="29" fill="#ffffff" stroke-linecap="square" stroke="none" transform=" translate(-22.5,-22.5)" style="animation: ball_t 7.3s linear infinite both, ball_mo 7.3s linear infinite both; offset-path: path('M114.5,186C264.213,225.135,404.63,26.5963,564.5,267.5C586.242,76.4147,772.844,-9.98232,751.631,-2.8782L1798.12,110.997C1658.06,235.36,1354.83,293.031,1354.83,293.031C1354.83,293.031,599.689,48.7322,608.452,-5.4807C624.32,133.197,542.741,242.259,434.999,293.525L351.5,-3.5L114.5,186'); offset-rotate: 0deg;"/>
        <rect id="right" width="37" height="116.5" fill="#ffffff" stroke-linecap="square" stroke="none" transform="translate(1824.44,152.554) translate(-18.5,-58.25)" style="animation: right_t 7.3s linear infinite both;"/>
    </g>
    <path fill="#000000" stroke="none" d="M1.31836,3.97461L1.31836,-10.3711L2.91992,-10.3711L2.91992,-9.02344C3.29753,-9.55078,3.72396,-9.94629,4.19922,-10.21C4.67448,-10.4736,5.25065,-10.6055,5.92773,-10.6055C6.81315,-10.6055,7.5944,-10.3776,8.27148,-9.92188C8.94857,-9.46615,9.45964,-8.82324,9.80469,-7.99316C10.1497,-7.16309,10.3223,-6.25326,10.3223,-5.26367C10.3223,-4.20247,10.1318,-3.24707,9.75098,-2.39746C9.37012,-1.54785,8.81673,-0.89681,8.09082,-0.444336C7.36491,0.00813802,6.60156,0.234375,5.80078,0.234375C5.21484,0.234375,4.68913,0.110677,4.22363,-0.136719C3.75814,-0.384115,3.37565,-0.696615,3.07617,-1.07422L3.07617,3.97461ZM2.91016,-5.12695C2.91016,-3.79232,3.18034,-2.80599,3.7207,-2.16797C4.26107,-1.52995,4.91536,-1.21094,5.68359,-1.21094C6.46484,-1.21094,7.13379,-1.54134,7.69043,-2.20215C8.24707,-2.86296,8.52539,-3.88672,8.52539,-5.27344C8.52539,-6.59505,8.25358,-7.58464,7.70996,-8.24219C7.16634,-8.89974,6.51693,-9.22852,5.76172,-9.22852C5.01302,-9.22852,4.35059,-8.87858,3.77441,-8.17871C3.19824,-7.47884,2.91016,-6.46159,2.91016,-5.12695ZM11.7891,-5.18555C11.7891,-7.10612,12.3229,-8.52865,13.3906,-9.45312C14.2826,-10.2214,15.3698,-10.6055,16.6523,-10.6055C18.0781,-10.6055,19.2435,-10.1383,20.1484,-9.2041C21.0534,-8.26986,21.5059,-6.97917,21.5059,-5.33203C21.5059,-3.9974,21.3057,-2.94759,20.9053,-2.18262C20.5049,-1.41764,19.9222,-0.823568,19.1572,-0.400391C18.3923,0.0227865,17.5573,0.234375,16.6523,0.234375C15.2005,0.234375,14.027,-0.23112,13.1318,-1.16211C12.2367,-2.0931,11.7891,-3.43424,11.7891,-5.18555ZM13.5957,-5.18555C13.5957,-3.85742,13.8854,-2.86296,14.4648,-2.20215C15.0443,-1.54134,15.7734,-1.21094,16.6523,-1.21094C17.5247,-1.21094,18.2507,-1.54297,18.8301,-2.20703C19.4095,-2.87109,19.6992,-3.88346,19.6992,-5.24414C19.6992,-6.52669,19.4079,-7.49837,18.8252,-8.15918C18.2425,-8.81999,17.5182,-9.15039,16.6523,-9.15039C15.7734,-9.15039,15.0443,-8.82161,14.4648,-8.16406C13.8854,-7.50651,13.5957,-6.51367,13.5957,-5.18555ZM23.5684,0L23.5684,-10.3711L25.1504,-10.3711L25.1504,-8.89648C25.9121,-10.0358,27.0124,-10.6055,28.4512,-10.6055C29.0762,-10.6055,29.6507,-10.4932,30.1748,-10.2686C30.6989,-10.0439,31.0911,-9.74935,31.3516,-9.38477C31.612,-9.02018,31.7943,-8.58724,31.8984,-8.08594C31.9635,-7.76042,31.9961,-7.19076,31.9961,-6.37695L31.9961,0L30.2383,0L30.2383,-6.30859C30.2383,-7.02474,30.1699,-7.56022,30.0332,-7.91504C29.8965,-8.26986,29.654,-8.55306,29.3057,-8.76465C28.9574,-8.97624,28.5488,-9.08203,28.0801,-9.08203C27.3314,-9.08203,26.6852,-8.8444,26.1416,-8.36914C25.598,-7.89388,25.3262,-6.99219,25.3262,-5.66406L25.3262,0ZM34.3711,0.859375L36.0801,1.11328C36.1517,1.64062,36.3503,2.02474,36.6758,2.26562C37.112,2.59115,37.7077,2.75391,38.4629,2.75391C39.2767,2.75391,39.9049,2.59115,40.3477,2.26562C40.7904,1.9401,41.0898,1.48438,41.2461,0.898438C41.3372,0.540365,41.3796,-0.211589,41.373,-1.35742C40.6048,-0.452474,39.6478,0,38.502,0C37.0762,0,35.9727,-0.514323,35.1914,-1.54297C34.4102,-2.57161,34.0195,-3.80534,34.0195,-5.24414C34.0195,-6.23372,34.1986,-7.14681,34.5566,-7.9834C34.9147,-8.81999,35.4339,-9.46615,36.1143,-9.92188C36.7946,-10.3776,37.5938,-10.6055,38.5117,-10.6055C39.7357,-10.6055,40.7448,-10.1107,41.5391,-9.12109L41.5391,-10.3711L43.1602,-10.3711L43.1602,-1.40625C43.1602,0.208333,42.9958,1.35254,42.667,2.02637C42.3382,2.7002,41.8174,3.23242,41.1045,3.62305C40.3916,4.01367,39.5143,4.20898,38.4727,4.20898C37.2357,4.20898,36.2363,3.93066,35.4746,3.37402C34.7129,2.81738,34.3451,1.97917,34.3711,0.859375ZM35.8262,-5.37109C35.8262,-4.01042,36.0964,-3.01758,36.6367,-2.39258C37.1771,-1.76758,37.8542,-1.45508,38.668,-1.45508C39.4753,-1.45508,40.1523,-1.76595,40.6992,-2.3877C41.2461,-3.00944,41.5195,-3.98438,41.5195,-5.3125C41.5195,-6.58203,41.238,-7.53906,40.6748,-8.18359C40.1117,-8.82812,39.4329,-9.15039,38.6387,-9.15039C37.8574,-9.15039,37.1934,-8.83301,36.6465,-8.19824C36.0996,-7.56348,35.8262,-6.62109,35.8262,-5.37109ZM58.1484,-1.2793C57.4974,-0.725911,56.8708,-0.335286,56.2686,-0.107422C55.6663,0.120443,55.0202,0.234375,54.3301,0.234375C53.1908,0.234375,52.3151,-0.0439453,51.7031,-0.600586C51.0911,-1.15723,50.7852,-1.86849,50.7852,-2.73438C50.7852,-3.24219,50.9007,-3.70605,51.1318,-4.12598C51.363,-4.5459,51.6657,-4.88281,52.04,-5.13672C52.4144,-5.39062,52.8359,-5.58268,53.3047,-5.71289C53.6497,-5.80404,54.1706,-5.89193,54.8672,-5.97656C56.2865,-6.14583,57.3314,-6.34766,58.002,-6.58203C58.0085,-6.82292,58.0117,-6.97591,58.0117,-7.04102C58.0117,-7.75716,57.8457,-8.26172,57.5137,-8.55469C57.0645,-8.95182,56.3971,-9.15039,55.5117,-9.15039C54.6849,-9.15039,54.0745,-9.00553,53.6807,-8.71582C53.2868,-8.42611,52.9954,-7.91341,52.8066,-7.17773L51.0879,-7.41211C51.2441,-8.14779,51.5013,-8.74186,51.8594,-9.19434C52.2174,-9.64681,52.735,-9.99512,53.4121,-10.2393C54.0892,-10.4834,54.8737,-10.6055,55.7656,-10.6055C56.651,-10.6055,57.3704,-10.5013,57.9238,-10.293C58.4772,-10.0846,58.8841,-9.82259,59.1445,-9.50684C59.4049,-9.19108,59.5872,-8.79232,59.6914,-8.31055C59.75,-8.01107,59.7793,-7.4707,59.7793,-6.68945L59.7793,-4.3457C59.7793,-2.71159,59.8167,-1.67806,59.8916,-1.24512C59.9665,-0.812174,60.1146,-0.397135,60.3359,0L58.5,0C58.3177,-0.364583,58.2005,-0.791016,58.1484,-1.2793ZM58.002,-5.20508C57.3639,-4.94466,56.4069,-4.72331,55.1309,-4.54102C54.4082,-4.43685,53.8971,-4.31966,53.5977,-4.18945C53.2982,-4.05924,53.0671,-3.86882,52.9043,-3.61816C52.7415,-3.36751,52.6602,-3.08919,52.6602,-2.7832C52.6602,-2.31445,52.8376,-1.92383,53.1924,-1.61133C53.5472,-1.29883,54.0664,-1.14258,54.75,-1.14258C55.4271,-1.14258,56.0293,-1.29069,56.5566,-1.58691C57.084,-1.88314,57.4714,-2.28841,57.7188,-2.80273C57.9076,-3.19987,58.002,-3.78581,58.002,-4.56055ZM62.5059,0L62.5059,-10.3711L64.0879,-10.3711L64.0879,-8.89648C64.8496,-10.0358,65.9499,-10.6055,67.3887,-10.6055C68.0137,-10.6055,68.5882,-10.4932,69.1123,-10.2686C69.6364,-10.0439,70.0286,-9.74935,70.2891,-9.38477C70.5495,-9.02018,70.7318,-8.58724,70.8359,-8.08594C70.901,-7.76042,70.9336,-7.19076,70.9336,-6.37695L70.9336,0L69.1758,0L69.1758,-6.30859C69.1758,-7.02474,69.1074,-7.56022,68.9707,-7.91504C68.834,-8.26986,68.5915,-8.55306,68.2432,-8.76465C67.8949,-8.97624,67.4863,-9.08203,67.0176,-9.08203C66.2689,-9.08203,65.6227,-8.8444,65.0791,-8.36914C64.5355,-7.89388,64.2637,-6.99219,64.2637,-5.66406L64.2637,0ZM73.6406,-12.2949L73.6406,-14.3164L75.3984,-14.3164L75.3984,-12.2949ZM73.6406,0L73.6406,-10.3711L75.3984,-10.3711L75.3984,0ZM78.0684,0L78.0684,-10.3711L79.6406,-10.3711L79.6406,-8.91602C79.9661,-9.42383,80.3991,-9.83236,80.9395,-10.1416C81.4798,-10.4508,82.0951,-10.6055,82.7852,-10.6055C83.5534,-10.6055,84.1833,-10.446,84.6748,-10.127C85.1663,-9.80794,85.513,-9.36198,85.7148,-8.78906C86.5352,-10,87.6029,-10.6055,88.918,-10.6055C89.9466,-10.6055,90.7376,-10.3206,91.291,-9.75098C91.8444,-9.18132,92.1211,-8.30404,92.1211,-7.11914L92.1211,0L90.373,0L90.373,-6.5332C90.373,-7.23633,90.3161,-7.74251,90.2021,-8.05176C90.0882,-8.361,89.8815,-8.61003,89.582,-8.79883C89.2826,-8.98763,88.931,-9.08203,88.5273,-9.08203C87.7982,-9.08203,87.1927,-8.83952,86.7109,-8.35449C86.2292,-7.86947,85.9883,-7.0931,85.9883,-6.02539L85.9883,0L84.2305,0L84.2305,-6.73828C84.2305,-7.51953,84.0872,-8.10547,83.8008,-8.49609C83.5143,-8.88672,83.0456,-9.08203,82.3945,-9.08203C81.8997,-9.08203,81.4424,-8.95182,81.0225,-8.69141C80.6025,-8.43099,80.2982,-8.05013,80.1094,-7.54883C79.9206,-7.04753,79.8262,-6.32487,79.8262,-5.38086L79.8262,0ZM101.492,-1.2793C100.841,-0.725911,100.215,-0.335286,99.6123,-0.107422C99.0101,0.120443,98.3639,0.234375,97.6738,0.234375C96.5345,0.234375,95.6589,-0.0439453,95.0469,-0.600586C94.4349,-1.15723,94.1289,-1.86849,94.1289,-2.73438C94.1289,-3.24219,94.2445,-3.70605,94.4756,-4.12598C94.7067,-4.5459,95.0094,-4.88281,95.3838,-5.13672C95.7581,-5.39062,96.1797,-5.58268,96.6484,-5.71289C96.9935,-5.80404,97.5143,-5.89193,98.2109,-5.97656C99.6302,-6.14583,100.675,-6.34766,101.346,-6.58203C101.352,-6.82292,101.355,-6.97591,101.355,-7.04102C101.355,-7.75716,101.189,-8.26172,100.857,-8.55469C100.408,-8.95182,99.7409,-9.15039,98.8555,-9.15039C98.0286,-9.15039,97.4183,-9.00553,97.0244,-8.71582C96.6305,-8.42611,96.3392,-7.91341,96.1504,-7.17773L94.4316,-7.41211C94.5879,-8.14779,94.8451,-8.74186,95.2031,-9.19434C95.5612,-9.64681,96.0788,-9.99512,96.7559,-10.2393C97.4329,-10.4834,98.2174,-10.6055,99.1094,-10.6055C99.9948,-10.6055,100.714,-10.5013,101.268,-10.293C101.821,-10.0846,102.228,-9.82259,102.488,-9.50684C102.749,-9.19108,102.931,-8.79232,103.035,-8.31055C103.094,-8.01107,103.123,-7.4707,103.123,-6.68945L103.123,-4.3457C103.123,-2.71159,103.16,-1.67806,103.235,-1.24512C103.31,-0.812174,103.458,-0.397135,103.68,0L101.844,0C101.661,-0.364583,101.544,-0.791016,101.492,-1.2793ZM101.346,-5.20508C100.708,-4.94466,99.7507,-4.72331,98.4746,-4.54102C97.752,-4.43685,97.2409,-4.31966,96.9414,-4.18945C96.6419,-4.05924,96.4108,-3.86882,96.248,-3.61816C96.0853,-3.36751,96.0039,-3.08919,96.0039,-2.7832C96.0039,-2.31445,96.1813,-1.92383,96.5361,-1.61133C96.891,-1.29883,97.4102,-1.14258,98.0938,-1.14258C98.7708,-1.14258,99.373,-1.29069,99.9004,-1.58691C100.428,-1.88314,100.815,-2.28841,101.062,-2.80273C101.251,-3.19987,101.346,-3.78581,101.346,-4.56055ZM109.688,-1.57227L109.941,-0.0195312C109.447,0.0846354,109.004,0.136719,108.613,0.136719C107.975,0.136719,107.48,0.0358073,107.129,-0.166016C106.777,-0.367839,106.53,-0.633138,106.387,-0.961914C106.243,-1.29069,106.172,-1.98242,106.172,-3.03711L106.172,-9.00391L104.883,-9.00391L104.883,-10.3711L106.172,-10.3711L106.172,-12.9395L107.92,-13.9941L107.92,-10.3711L109.688,-10.3711L109.688,-9.00391L107.92,-9.00391L107.92,-2.93945C107.92,-2.43815,107.951,-2.11589,108.013,-1.97266C108.075,-1.82943,108.175,-1.71549,108.315,-1.63086C108.455,-1.54622,108.656,-1.50391,108.916,-1.50391C109.111,-1.50391,109.368,-1.52669,109.688,-1.57227ZM118.512,-3.33984L120.328,-3.11523C120.042,-2.05404,119.511,-1.23047,118.736,-0.644531C117.962,-0.0585938,116.972,0.234375,115.768,0.234375C114.251,0.234375,113.048,-0.232747,112.159,-1.16699C111.271,-2.10124,110.826,-3.41146,110.826,-5.09766C110.826,-6.84245,111.275,-8.19661,112.174,-9.16016C113.072,-10.1237,114.238,-10.6055,115.67,-10.6055C117.057,-10.6055,118.189,-10.1335,119.068,-9.18945C119.947,-8.24544,120.387,-6.91732,120.387,-5.20508C120.387,-5.10091,120.383,-4.94466,120.377,-4.73633L112.643,-4.73633C112.708,-3.59701,113.03,-2.72461,113.609,-2.11914C114.189,-1.51367,114.911,-1.21094,115.777,-1.21094C116.422,-1.21094,116.972,-1.38021,117.428,-1.71875C117.883,-2.05729,118.245,-2.59766,118.512,-3.33984ZM112.74,-6.18164L118.531,-6.18164C118.453,-7.05404,118.232,-7.70833,117.867,-8.14453C117.307,-8.82161,116.581,-9.16016,115.689,-9.16016C114.882,-9.16016,114.203,-8.88997,113.653,-8.34961C113.103,-7.80924,112.799,-7.08659,112.74,-6.18164ZM129.266,0L129.266,-1.30859C128.608,-0.279948,127.641,0.234375,126.365,0.234375C125.538,0.234375,124.778,0.00651042,124.085,-0.449219C123.392,-0.904948,122.854,-1.54134,122.474,-2.3584C122.093,-3.17546,121.902,-4.11458,121.902,-5.17578C121.902,-6.21094,122.075,-7.15007,122.42,-7.99316C122.765,-8.83626,123.283,-9.48242,123.973,-9.93164C124.663,-10.3809,125.434,-10.6055,126.287,-10.6055C126.912,-10.6055,127.469,-10.4736,127.957,-10.21C128.445,-9.94629,128.842,-9.60286,129.148,-9.17969L129.148,-14.3164L130.896,-14.3164L130.896,0ZM123.709,-5.17578C123.709,-3.84766,123.989,-2.85482,124.549,-2.19727C125.109,-1.53971,125.77,-1.21094,126.531,-1.21094C127.299,-1.21094,127.952,-1.52507,128.489,-2.15332C129.026,-2.78158,129.295,-3.74023,129.295,-5.0293C129.295,-6.44857,129.021,-7.49023,128.475,-8.1543C127.928,-8.81836,127.254,-9.15039,126.453,-9.15039C125.672,-9.15039,125.019,-8.83138,124.495,-8.19336C123.971,-7.55534,123.709,-6.54948,123.709,-5.17578ZM138.805,-4.59961L140.592,-4.75586C140.676,-4.03971,140.873,-3.45215,141.183,-2.99316C141.492,-2.53418,141.972,-2.16309,142.623,-1.87988C143.274,-1.59668,144.007,-1.45508,144.82,-1.45508C145.543,-1.45508,146.181,-1.5625,146.734,-1.77734C147.288,-1.99219,147.7,-2.28678,147.97,-2.66113C148.24,-3.03548,148.375,-3.44401,148.375,-3.88672C148.375,-4.33594,148.245,-4.72819,147.984,-5.06348C147.724,-5.39876,147.294,-5.68034,146.695,-5.9082C146.311,-6.05794,145.462,-6.29069,144.146,-6.60645C142.831,-6.9222,141.91,-7.22005,141.383,-7.5C140.699,-7.85807,140.19,-8.30241,139.854,-8.83301C139.519,-9.36361,139.352,-9.95768,139.352,-10.6152C139.352,-11.3379,139.557,-12.0133,139.967,-12.6416C140.377,-13.2699,140.976,-13.7467,141.764,-14.0723C142.551,-14.3978,143.427,-14.5605,144.391,-14.5605C145.452,-14.5605,146.388,-14.3896,147.198,-14.0479C148.009,-13.7061,148.632,-13.2031,149.068,-12.5391C149.505,-11.875,149.739,-11.123,149.771,-10.2832L147.955,-10.1465C147.857,-11.0514,147.527,-11.735,146.964,-12.1973C146.401,-12.6595,145.569,-12.8906,144.469,-12.8906C143.323,-12.8906,142.488,-12.6807,141.964,-12.2607C141.44,-11.8408,141.178,-11.3346,141.178,-10.7422C141.178,-10.2279,141.363,-9.80469,141.734,-9.47266C142.099,-9.14062,143.051,-8.80046,144.591,-8.45215C146.131,-8.10384,147.187,-7.79948,147.76,-7.53906C148.593,-7.15495,149.208,-6.66829,149.605,-6.0791C150.003,-5.48991,150.201,-4.8112,150.201,-4.04297C150.201,-3.28125,149.983,-2.56348,149.547,-1.88965C149.111,-1.21582,148.484,-0.691732,147.667,-0.317383C146.85,0.0569661,145.93,0.244141,144.908,0.244141C143.613,0.244141,142.527,0.0553385,141.651,-0.322266C140.776,-0.69987,140.089,-1.2679,139.591,-2.02637C139.093,-2.78483,138.831,-3.64258,138.805,-4.59961ZM156.885,0L151.338,-14.3164L153.389,-14.3164L157.109,-3.91602C157.409,-3.08268,157.66,-2.30143,157.861,-1.57227C158.083,-2.35352,158.34,-3.13477,158.633,-3.91602L162.5,-14.3164L164.434,-14.3164L158.828,0ZM172.836,-5.61523L172.836,-7.29492L178.9,-7.30469L178.9,-1.99219C177.969,-1.25,177.009,-0.691732,176.02,-0.317383C175.03,0.0569661,174.014,0.244141,172.973,0.244141C171.566,0.244141,170.289,-0.0569661,169.14,-0.65918C167.991,-1.26139,167.123,-2.13216,166.537,-3.27148C165.951,-4.41081,165.658,-5.68359,165.658,-7.08984C165.658,-8.48307,165.95,-9.78353,166.532,-10.9912C167.115,-12.1989,167.953,-13.0957,169.047,-13.6816C170.141,-14.2676,171.4,-14.5605,172.826,-14.5605C173.861,-14.5605,174.797,-14.3929,175.634,-14.0576C176.47,-13.7223,177.126,-13.2552,177.602,-12.6562C178.077,-12.0573,178.438,-11.276,178.686,-10.3125L176.977,-9.84375C176.762,-10.5729,176.495,-11.1458,176.176,-11.5625C175.857,-11.9792,175.401,-12.3128,174.809,-12.5635C174.216,-12.8141,173.559,-12.9395,172.836,-12.9395C171.97,-12.9395,171.221,-12.8076,170.59,-12.5439C169.958,-12.2803,169.449,-11.9336,169.062,-11.5039C168.674,-11.0742,168.373,-10.6022,168.158,-10.0879C167.794,-9.20247,167.611,-8.24219,167.611,-7.20703C167.611,-5.93099,167.831,-4.86328,168.271,-4.00391C168.71,-3.14453,169.35,-2.50651,170.189,-2.08984C171.029,-1.67318,171.921,-1.46484,172.865,-1.46484C173.686,-1.46484,174.486,-1.62272,175.268,-1.93848C176.049,-2.25423,176.641,-2.59115,177.045,-2.94922L177.045,-5.61523Z" transform="translate(1748.53,370.494)"/>
</svg>
